<svg xmlns="http://www.w3.org/2000/svg" viewBox="0 0 1280 480" role="img" aria-label="Graveyard Shift banner art">
  <rect width="1280" height="480" fill="#10141a"/>
  <circle cx="1088" cy="108" r="92" fill="#f4d88a" opacity="0.92"/>
  <path d="M0 322c220-44 432-26 640-4s416 22 640-38v200H0z" fill="#131a20"/>
  <path d="M0 368c204-32 424-14 640 4s434 16 640-24v132H0z" fill="#0a0f14"/>
  <g fill="#c7f08f">
    <rect x="866" y="200" width="18" height="122" rx="6"/>
    <rect x="944" y="178" width="20" height="144" rx="6"/>
    <rect x="1040" y="210" width="18" height="112" rx="6"/>
    <rect x="1132" y="170" width="20" height="156" rx="6"/>
  </g>
  <path d="M874 228h110M952 202h116M1048 232h106" stroke="#c7f08f" stroke-width="9" stroke-linecap="round"/>
  <text x="76" y="146" fill="#dafba7" font-size="26" font-family="Segoe UI, Arial, sans-serif" font-weight="800" letter-spacing="4">LATE SHIFT SURVIVAL</text>
  <text x="76" y="250" fill="#dafba7" font-size="92" font-family="Segoe UI, Arial, sans-serif" font-weight="900">GRAVEYARD SHIFT</text>
  <text x="76" y="312" fill="#e3ebe5" font-size="30" font-family="Segoe UI, Arial, sans-serif" font-weight="600">Hold the cemetery line until sunrise finally shows up.</text>
</svg>