<svg xmlns="http://www.w3.org/2000/svg" viewBox="0 0 640 900" role="img" aria-label="Neon Circuit cover art">
  <defs>
    <linearGradient id="nc-cover-bg" x1="0" y1="0" x2="1" y2="1">
      <stop offset="0%" stop-color="#040816"/>
      <stop offset="48%" stop-color="#09172b"/>
      <stop offset="100%" stop-color="#180a1f"/>
    </linearGradient>
    <radialGradient id="nc-cover-core" cx="76%" cy="30%" r="42%">
      <stop offset="0%" stop-color="#7cfff1" stop-opacity="0.95"/>
      <stop offset="55%" stop-color="#39ffc0" stop-opacity="0.3"/>
      <stop offset="100%" stop-color="#39ffc0" stop-opacity="0"/>
    </radialGradient>
    <filter id="nc-cover-glow" x="-40%" y="-40%" width="180%" height="180%">
      <feGaussianBlur stdDeviation="10" result="blur"/>
      <feMerge><feMergeNode in="blur"/><feMergeNode in="SourceGraphic"/></feMerge>
    </filter>
  </defs>
  <rect width="640" height="900" fill="url(#nc-cover-bg)"/>
  <rect width="640" height="900" fill="url(#nc-cover-core)"/>
  <path d="M0 156h640M0 308h640M0 460h640M0 612h640M0 764h640" stroke="#74f4ff" stroke-opacity="0.08" stroke-width="4"/>
  <path d="M0 108h640" stroke="#7ceaff" stroke-opacity="0.05" stroke-width="60"/>
  <path d="M72 242h112l60-60h122l86 86h68" fill="none" stroke="#39ffc0" stroke-width="14" stroke-linecap="round" stroke-linejoin="round" filter="url(#nc-cover-glow)"/>
  <path d="M72 388h166l58-58h112l94 94h66" fill="none" stroke="#8ecbff" stroke-width="10" stroke-linecap="round" stroke-linejoin="round" opacity="0.9"/>
  <path d="M72 526h96l84-84h98l90 90h128" fill="none" stroke="#ff5c78" stroke-width="8" stroke-linecap="round" stroke-linejoin="round" opacity="0.8"/>
  <path d="M418 560 584 560" stroke="#f6ff85" stroke-width="6" stroke-linecap="round" opacity="0.7"/>
  <circle cx="498" cy="228" r="28" fill="#ff5c78" filter="url(#nc-cover-glow)"/>
  <circle cx="548" cy="382" r="40" fill="#f6ff85" filter="url(#nc-cover-glow)"/>
  <rect x="414" y="524" width="124" height="124" rx="16" fill="#effcff" filter="url(#nc-cover-glow)"/>
  <rect x="452" y="562" width="48" height="48" rx="8" fill="#07111a"/>
  <text x="72" y="112" fill="#77efff" font-size="26" font-family="Segoe UI, Arial, sans-serif" font-weight="800" letter-spacing="4">ARCADE SIGNAL RUN</text>
  <text x="72" y="742" fill="#ffffff" font-size="86" font-family="Segoe UI, Arial, sans-serif" font-weight="900">NEON</text>
  <text x="72" y="822" fill="#39ffc0" font-size="86" font-family="Segoe UI, Arial, sans-serif" font-weight="900">CIRCUIT</text>
  <text x="72" y="866" fill="#d8e6f4" font-size="24" font-family="Segoe UI, Arial, sans-serif" font-weight="600">Route the signal before the board tears apart.</text>
</svg>