<svg xmlns="http://www.w3.org/2000/svg" viewBox="0 0 640 900" role="img" aria-label="Tempo Trashfire cover art">
  <defs>
    <linearGradient id="tt-cover-bg" x1="0" y1="0" x2="1" y2="1">
      <stop offset="0%" stop-color="#1b0a16"/>
      <stop offset="52%" stop-color="#35112d"/>
      <stop offset="100%" stop-color="#0e1120"/>
    </linearGradient>
  </defs>
  <rect width="640" height="900" fill="url(#tt-cover-bg)"/>
  <circle cx="194" cy="290" r="100" fill="#ffb347" opacity="0.92"/>
  <circle cx="448" cy="328" r="122" fill="#58d3ff" opacity="0.82"/>
  <circle cx="320" cy="372" r="78" fill="#ff6f9c" opacity="0.72"/>
  <g stroke="#ffffff" stroke-opacity="0.18" stroke-width="6" fill="none">
    <path d="M84 234c72 0 72 72 144 72s72-72 144-72 72 72 144 72"/>
    <path d="M84 318c72 0 72 72 144 72s72-72 144-72 72 72 144 72"/>
    <path d="M84 402c72 0 72 72 144 72s72-72 144-72 72 72 144 72"/>
  </g>
  <rect x="102" y="566" width="436" height="184" rx="24" fill="#100d18" fill-opacity="0.62" stroke="#ff6f9c" stroke-opacity="0.35"/>
  <text x="102" y="128" fill="#ffd6a0" font-size="26" font-family="Segoe UI, Arial, sans-serif" font-weight="800" letter-spacing="4">RHYTHM PANIC SET</text>
  <text x="102" y="674" fill="#ff6f9c" font-size="84" font-family="Segoe UI, Arial, sans-serif" font-weight="900">TEMPO</text>
  <text x="102" y="752" fill="#ffffff" font-size="84" font-family="Segoe UI, Arial, sans-serif" font-weight="900">TRASHFIRE</text>
  <text x="102" y="806" fill="#f5dbe8" font-size="28" font-family="Segoe UI, Arial, sans-serif" font-weight="600">Hold the groove together while the whole stage threatens to combust.</text>
</svg>