<svg xmlns="http://www.w3.org/2000/svg" viewBox="0 0 1280 480" role="img" aria-label="Velvet Rook banner art">
  <rect width="1280" height="480" fill="#1f0d22"/>
  <path d="M832 72h352v286H832z" fill="#2b0f31" stroke="#ee99d1" stroke-opacity="0.45" stroke-width="4"/>
  <path d="M832 72h88v286M1008 72h88v286" fill="#411645" opacity="0.58"/>
  <g opacity="0.16" stroke="#ffe080" stroke-width="3">
    <path d="M832 120h352M832 168h352M832 216h352M832 264h352M832 312h352"/>
  </g>
  <path d="M1008 132c22 0 40 18 40 40v30h30c18 0 32 14 32 32 0 12-6 24-18 30l-16 8 22 96H918l22-96-16-8c-12-6-18-18-18-30 0-18 14-32 32-32h30v-30c0-22 18-40 40-40z" fill="#ffe080"/>
  <text x="76" y="146" fill="#f1a8d5" font-size="26" font-family="Segoe UI, Arial, sans-serif" font-weight="800" letter-spacing="4">LUXURY TACTICS</text>
  <text x="76" y="248" fill="#ee99d1" font-size="96" font-family="Segoe UI, Arial, sans-serif" font-weight="900">VELVET ROOK</text>
  <text x="76" y="312" fill="#f3e6ef" font-size="30" font-family="Segoe UI, Arial, sans-serif" font-weight="600">An elegant trap board lit like the final move of a stage play.</text>
</svg>